<?xml version="1.0" standalone="no"?>
<!DOCTYPE svg PUBLIC "-//W3C//DTD SVG 20010904//EN"
 "http://www.w3.org/TR/2001/REC-SVG-20010904/DTD/svg10.dtd">
<svg version="1.0" xmlns="http://www.w3.org/2000/svg"
 width="720.000000pt" height="720.000000pt" viewBox="0 0 720.000000 720.000000"
 preserveAspectRatio="xMidYMid meet">
<metadata>
Created by potrace 1.14, written by Peter Selinger 2001-2017
</metadata>
<g transform="translate(0.000000,720.000000) scale(0.100000,-0.100000)"
fill="#000000" stroke="none">
<path d="M3487 7184 c-1 -1 -57 -5 -124 -9 -67 -3 -133 -8 -145 -10 -20 -3
-129 -19 -205 -30 -175 -25 -505 -112 -663 -175 -170 -68 -216 -88 -310 -133
-130 -63 -366 -199 -425 -244 -5 -5 -23 -17 -40 -27 -264 -168 -679 -574 -881
-861 -198 -283 -363 -595 -459 -870 -9 -27 -21 -59 -26 -70 -39 -93 -128 -459
-145 -600 -4 -27 -8 -52 -10 -56 -1 -3 -6 -39 -9 -80 -4 -40 -9 -85 -12 -99
-9 -47 -11 -514 -2 -605 22 -233 50 -399 101 -600 39 -155 111 -377 149 -462
11 -23 19 -45 19 -48 0 -9 156 -324 186 -375 125 -216 249 -390 419 -590 46
-55 304 -310 365 -362 30 -25 75 -63 100 -82 25 -20 50 -40 56 -45 117 -95
385 -262 571 -355 323 -162 627 -262 1008 -331 147 -27 406 -48 585 -48 119 0
350 10 387 17 10 2 43 7 73 11 45 5 146 21 255 39 139 24 493 129 610 182 17
7 53 22 80 32 174 68 571 291 700 394 5 4 35 27 65 50 305 231 621 568 825
878 160 245 299 524 394 792 32 91 90 286 97 327 3 12 11 51 19 85 8 33 16 72
18 86 3 14 8 43 12 65 12 65 13 71 19 117 24 175 31 287 31 513 0 239 -7 346
-36 530 -6 39 -12 81 -14 95 -27 180 -109 468 -195 686 -108 273 -290 604
-442 804 -212 279 -454 526 -720 733 -135 106 -381 259 -559 347 -68 34 -132
66 -141 71 -51 26 -279 112 -393 148 -130 41 -345 94 -420 105 -22 3 -51 8
-65 11 -48 11 -256 35 -355 41 -90 6 -344 11 -348 8z"/>
</g>
</svg>
